<?xml version="1.0" standalone="no"?>
<!DOCTYPE svg PUBLIC "-//W3C//DTD SVG 20010904//EN"
 "http://www.w3.org/TR/2001/REC-SVG-20010904/DTD/svg10.dtd">
<svg version="1.0" xmlns="http://www.w3.org/2000/svg"
 width="512.000000pt" height="512.000000pt" viewBox="0 0 512.000000 512.000000"
 preserveAspectRatio="xMidYMid meet">

<g transform="translate(0.000000,512.000000) scale(0.100000,-0.100000)"
fill="#000000" stroke="none">
<path d="M2330 5094 c-160 -19 -285 -40 -402 -70 -448 -112 -844 -337 -1173
-668 -390 -391 -626 -852 -717 -1401 -14 -86 -21 -189 -25 -360 -5 -226 -4
-249 21 -400 47 -283 124 -531 233 -748 381 -762 1084 -1273 1923 -1397 204
-31 507 -31 710 0 562 84 1045 325 1440 720 393 393 634 873 720 1435 31 198
31 511 0 715 -164 1108 -1006 1966 -2110 2150 -94 16 -182 22 -355 25 -126 2
-246 1 -265 -1z"/>
</g>
</svg>
